<?xml version="1.0" encoding="UTF-8" standalone="no"?><!DOCTYPE svg PUBLIC "-//W3C//DTD SVG 1.1//EN" "http://www.w3.org/Graphics/SVG/1.1/DTD/svg11.dtd"><svg width="100%" height="100%" viewBox="0 0 10667 10667" version="1.1" xmlns="http://www.w3.org/2000/svg" xmlns:xlink="http://www.w3.org/1999/xlink" xml:space="preserve" xmlns:serif="http://www.serif.com/" style="fill-rule:evenodd;clip-rule:evenodd;stroke-linejoin:round;stroke-miterlimit:2;"><g><path d="M4701.81,6503.83l-427.403,-464.085c-1139.53,-1237.33 -1138.06,-1238.14 -1694.35,-1852.41c-21.103,-43.498 -108.666,-95.077 -125.874,-21.546c-15.173,64.831 -13.036,181.833 -12.747,197.677c16.136,883.705 32.759,1767.4 50.537,2651.08c1.386,68.871 71.618,267.507 140.411,327.874c175.786,154.254 447.487,224.258 489.56,235.098c300.931,68.921 179.079,265.591 145.71,267.433c-191.833,10.586 -1464.09,16.325 -1591.41,16.9c-0,-0 -118.904,-0 -118.904,-0c-76.132,-0 -356.923,-117.348 7.633,-284.333c341.957,-137.905 375.087,-536.297 381.61,-637.133c64.105,-611.119 213.635,-3087.14 122.572,-3398.09c-60.532,-206.701 -182.073,-294.715 -184.255,-296.556c-121.773,-102.786 -383.341,-248.759 -457.307,-277.603c-237.829,-54.468 -248.206,-244.091 -106.857,-287.865c115.646,-35.814 119.564,1.43 1513.14,-22.817c12.259,-0.213 140.351,-2.442 153.189,4.803c50.364,28.42 127.351,112.04 134.876,124.965c64.206,73.807 561.098,644.999 805.197,920.304l404.507,456.219c51.485,58.066 1478.09,1693.33 1606.58,1840.61c7.405,10.176 72.544,99.687 127.004,92.826c40.904,-5.153 40.904,-99.277 40.904,-108.557c0,-0 0,-1270.33 0,-1270.33c0,-97.868 0,-857.377 -22.897,-1223.14c-0.849,-25.385 -6.792,-203.024 -114.801,-296.01c-144.057,-124.019 -439.857,-204.244 -480.511,-215.27c-181.417,-41.549 -181.05,-203.93 -137.269,-234.59c25.024,-17.525 181.531,-80.09 197.382,-80.132c1529.95,-4.002 1520.07,-18.632 1653.91,10.092c30.467,6.538 71.215,106.648 71.861,127.953c316.859,-100.125 311.398,-137.91 643.993,-141.744c401.94,-4.634 647.757,57.841 762.876,106.04c339.281,142.056 456.051,440.044 476.011,490.98c116.909,298.342 179.073,874.316 136.802,902.85c-70.791,47.786 -285.95,10.741 -315.621,-93.106c-317.686,-1231.04 -1387.84,-1047.28 -1593.17,-754.78c-171.396,244.16 -185.461,574.799 15.818,797.906c116.313,128.927 224.472,206.914 245.992,222.431c49.994,36.048 232.456,167.611 646.019,419.784c394.129,231.041 1048.95,647.865 1141.23,1446.24c101.025,874.012 -490.682,1587.97 -1040.33,1772.26c-604.867,202.794 -1644.74,211.3 -2263.3,-69.478c-130.336,-59.163 -320.848,-198.666 -380.37,-259.379c-66.9,-68.24 -131.894,-138.332 -196.793,-208.478c-429.461,-464.186 -422.692,-469.649 -851.151,-934.879Zm1825.5,-1258.54c-5.891,119.111 -55.321,1118.61 -31.807,1490.36c435.238,846.757 1068.11,926.339 1372.86,838.72c338.811,-97.411 486.578,-474.412 475.199,-739.63c-24.183,-563.682 -813.763,-910.886 -884.342,-947.939c-672.573,-368.314 -869.597,-575.871 -931.909,-641.515Z"/></g></svg>