<?xml version="1.0" encoding="UTF-8" standalone="no"?><!DOCTYPE svg PUBLIC "-//W3C//DTD SVG 1.1//EN" "http://www.w3.org/Graphics/SVG/1.1/DTD/svg11.dtd"><svg width="100%" height="100%" viewBox="0 0 400 400" version="1.1" xmlns="http://www.w3.org/2000/svg" xmlns:xlink="http://www.w3.org/1999/xlink" xml:space="preserve" xmlns:serif="http://www.serif.com/" style="fill-rule:evenodd;clip-rule:evenodd;stroke-linejoin:round;stroke-miterlimit:2;"><g id="sphere"><g id="sphere_back" opacity="0.25"><g id="sphere_half"><g id="meridians"><path id="meridian0" d="M206.187,399.904c-3.796,0.101 -9.318,-90.066 -12.233,-199.743c-2.915,-109.677 -2.19,-200.01 1.605,-200.112c-0.582,0.013 -1.164,0.029 -1.746,0.047c-3.795,0.101 -4.52,90.435 -1.604,200.111c2.915,109.677 8.437,199.844 12.232,199.744c0.582,-0.013 1.164,-0.029 1.746,-0.047Z" style="fill-rule:nonzero;"/><path id="meridian1" d="M227.627,398.083c-0.006,0 -0.011,0.001 -0.017,0.002c-18.67,2.52 -46.108,-84.878 -60.782,-193.608c-14.674,-108.73 -11.386,-200.275 7.284,-202.794c0.006,-0.001 0.011,-0.002 0.017,-0.003c-0.586,0.077 -1.171,0.156 -1.756,0.237c-18.657,2.573 -21.937,94.1 -7.268,202.792c14.669,108.694 42.095,196.077 60.766,193.611c0.586,-0.077 1.171,-0.156 1.756,-0.237Z" style="fill-rule:nonzero;"/><path id="meridian2" d="M249.788,393.704c-0.021,0.005 -0.042,0.01 -0.063,0.016c-32.299,8.144 -80.952,-72.696 -107.778,-179.082c-26.825,-106.385 -22.322,-200.629 9.977,-208.774c0.021,-0.005 0.043,-0.01 0.064,-0.016c-0.593,0.147 -1.185,0.296 -1.776,0.448c-32.246,8.254 -36.719,102.452 -9.914,208.758c26.806,106.307 75.41,187.121 107.714,179.098c0.593,-0.147 1.185,-0.296 1.776,-0.448Z" style="fill-rule:nonzero;"/><path id="meridian3" d="M273.215,386.117c-0.048,0.019 -0.095,0.037 -0.143,0.056c-43.604,16.911 -112.129,-53.348 -151.801,-155.64c-39.671,-102.292 -36.435,-200.382 7.169,-217.292c0.048,-0.019 0.096,-0.037 0.144,-0.056c-0.601,0.23 -1.201,0.463 -1.799,0.698c-43.478,17.074 -46.647,115.071 -7.025,217.236c39.622,102.165 108.035,172.4 151.656,155.696c0.601,-0.23 1.201,-0.463 1.799,-0.698Z" style="fill-rule:nonzero;"/><path id="meridian4" d="M298.333,374.157c-0.082,0.046 -0.165,0.093 -0.248,0.139c-51.356,28.648 -137.597,-26.624 -191.046,-122.44c-53.449,-95.816 -55.171,-198.234 -3.815,-226.882c0.082,-0.046 0.165,-0.092 0.248,-0.138c-0.603,0.333 -1.205,0.668 -1.805,1.007c-51.12,28.849 -49.288,131.102 4.063,226.743c53.352,95.641 139.394,150.919 190.798,122.578c0.603,-0.333 1.205,-0.668 1.805,-1.007Z" style="fill-rule:nonzero;"/><path id="meridian5" d="M325.181,355.98c-0.112,0.09 -0.224,0.179 -0.336,0.268c-54.099,42.919 -154.727,7.509 -222.917,-78.442c-68.19,-85.952 -79.785,-191.997 -25.686,-234.916c0.112,-0.089 0.224,-0.178 0.337,-0.266c-0.589,0.462 -1.176,0.927 -1.76,1.396c-53.739,43.111 -42.007,148.898 26.022,234.648c68.03,85.749 168.377,121.234 222.58,78.708c0.589,-0.462 1.176,-0.927 1.76,-1.396Z" style="fill-rule:nonzero;"/><path id="meridian6" d="M352.798,329.045c-0.128,0.152 -0.256,0.303 -0.385,0.454c-50.179,58.68 -160.085,48.29 -243.47,-23.015c-83.386,-71.305 -110.711,-178.266 -60.533,-236.945c0.129,-0.151 0.259,-0.301 0.388,-0.451c-0.536,0.619 -1.068,1.241 -1.596,1.867c-49.68,58.808 -22.224,165.394 60.918,236.491c83.142,71.097 192.698,81.674 243.082,23.466c0.536,-0.619 1.068,-1.241 1.596,-1.867Z" style="fill-rule:nonzero;"/><path id="meridian7" d="M378.203,290.795c-0.113,0.222 -0.227,0.443 -0.341,0.664c-38.179,73.714 -149.764,92.85 -247.188,42.391c-97.423,-50.459 -146.174,-152.638 -107.995,-226.352c0.114,-0.222 0.23,-0.442 0.346,-0.663c-0.415,0.788 -0.824,1.578 -1.228,2.37c-37.57,73.711 11.244,175.401 108.337,225.688c97.092,50.288 208.313,31.486 246.841,-41.728c0.415,-0.788 0.824,-1.578 1.228,-2.37Z" style="fill-rule:nonzero;"/><path id="meridian8" d="M395.775,240.893c-0.059,0.28 -0.118,0.559 -0.178,0.838c-18.242,84.349 -121.495,134.674 -228.731,111.482c-107.237,-23.191 -180.469,-111.683 -162.227,-196.032c0.06,-0.279 0.121,-0.558 0.184,-0.836c-0.206,0.919 -0.405,1.84 -0.598,2.762c-17.591,84.157 55.571,172.09 162.405,195.194c106.835,23.104 209.793,-26.74 228.547,-110.646c0.206,-0.919 0.405,-1.84 0.598,-2.762Z" style="fill-rule:nonzero;"/><path id="meridian9" d="M399.38,184.265c0.024,0.298 0.046,0.596 0.067,0.895c6.221,86.737 -78.711,164.57 -188.145,172.419c-109.435,7.849 -204.605,-57.067 -210.826,-143.805c-0.021,-0.298 -0.042,-0.596 -0.061,-0.894c0.062,0.952 0.13,1.903 0.205,2.855c6.813,86.354 101.75,150.728 210.758,142.91c109.008,-7.818 193.787,-85.082 188.207,-171.525c-0.062,-0.952 -0.13,-1.903 -0.205,-2.855Z" style="fill-rule:nonzero;"/><path id="meridian10" d="M387.45,130.268c0.095,0.257 0.19,0.515 0.285,0.774c29.079,79.85 -31.825,176.45 -134.917,213.993c-103.092,37.544 -211.853,2.731 -240.932,-77.119c-0.094,-0.258 -0.187,-0.517 -0.28,-0.776c0.309,0.866 0.624,1.73 0.944,2.592c29.52,79.357 137.934,113.751 240.648,76.345c102.714,-37.405 163.621,-133.462 135.196,-213.217c-0.309,-0.866 -0.624,-1.73 -0.944,-2.592Z" style="fill-rule:nonzero;"/><path id="meridian11" d="M364.628,86.432c0.127,0.184 0.254,0.369 0.38,0.554c45.238,66.487 7.822,171.985 -82.887,233.705c-90.709,61.72 -202.577,57.799 -247.816,-8.688c-0.126,-0.185 -0.251,-0.37 -0.376,-0.556c0.476,0.71 0.957,1.417 1.443,2.121c45.51,65.994 157.014,69.659 247.436,8.134c90.423,-61.526 127.944,-166.591 83.263,-233.149c-0.476,-0.71 -0.957,-1.417 -1.443,-2.121Z" style="fill-rule:nonzero;"/><path id="meridian12" d="M337.321,54.594c0.125,0.118 0.249,0.236 0.373,0.354c53.076,50.718 34.378,157.725 -41.42,237.048c-75.799,79.323 -181.846,102.862 -234.921,52.145c-0.125,-0.119 -0.248,-0.238 -0.372,-0.357c0.563,0.544 1.129,1.085 1.698,1.622c53.226,50.278 158.951,26.613 234.548,-52.499c75.597,-79.113 94.435,-185.804 41.792,-236.691c-0.563,-0.544 -1.129,-1.085 -1.698,-1.622Z" style="fill-rule:nonzero;"/><path id="meridian13" d="M309.775,32.819c0.098,0.065 0.197,0.13 0.295,0.195c53.454,35.512 47.482,139.934 -13.231,231.321c-60.712,91.386 -154.657,137.364 -208.111,101.852c-0.098,-0.065 -0.197,-0.131 -0.295,-0.197c0.595,0.401 1.193,0.797 1.792,1.191c53.526,35.162 147.23,-10.852 207.816,-102.048c60.586,-91.196 66.684,-195.409 13.526,-231.123c-0.595,-0.401 -1.193,-0.797 -1.792,-1.191Z" style="fill-rule:nonzero;"/><path id="meridian14" d="M283.74,18.375c0.063,0.029 0.126,0.058 0.189,0.088c48.009,22.426 49.305,122.678 2.871,222.083c-46.435,99.405 -124.15,162.749 -172.159,140.323c-0.062,-0.029 -0.125,-0.058 -0.187,-0.088c0.6,0.284 1.202,0.566 1.806,0.844c48.037,22.179 125.604,-41.153 171.969,-140.411c46.366,-99.259 45.156,-199.389 -2.683,-221.995c-0.6,-0.284 -1.202,-0.566 -1.806,-0.844Z" style="fill-rule:nonzero;"/><path id="meridian15" d="M259.524,9.063c0.032,0.01 0.063,0.02 0.094,0.03c38.314,12.142 42.568,108.197 9.424,212.786c-33.145,104.59 -91.947,180.663 -130.261,168.521c-0.031,-0.01 -0.062,-0.02 -0.093,-0.03c0.595,0.192 1.191,0.381 1.788,0.567c38.323,11.99 97.053,-64.058 130.166,-168.55c33.115,-104.493 28.905,-200.487 -9.33,-212.757c-0.595,-0.192 -1.191,-0.381 -1.788,-0.567Z" style="fill-rule:nonzero;"/><path id="meridian16" d="M236.817,3.418c0.012,0.002 0.024,0.005 0.036,0.007c25.705,4.934 29.839,97.658 9.158,205.406c-20.682,107.749 -58.852,192.353 -84.558,187.419c-0.011,-0.002 -0.023,-0.004 -0.035,-0.007c0.588,0.116 1.176,0.229 1.765,0.339c25.707,4.849 63.851,-79.733 84.521,-187.426c20.671,-107.692 16.554,-200.386 -9.122,-205.399c-0.588,-0.116 -1.176,-0.229 -1.765,-0.339Z" style="fill-rule:nonzero;"/><path id="meridian17" d="M215.103,0.571c11.325,0.908 13.432,91.648 4.667,201.013c-8.765,109.365 -25.297,198.612 -36.622,197.705c0.583,0.049 1.166,0.096 1.749,0.14c11.325,0.907 27.857,-88.34 36.622,-197.704c8.765,-109.365 6.658,-200.106 -4.667,-201.014c-0.583,-0.049 -1.166,-0.096 -1.749,-0.14Z" style="fill-rule:nonzero;"/></g><g id="circles_of_latitude"><path id="circle_of_latitude4" d="M254.586,7.593c-34.584,-9.811 -74.588,-9.811 -109.172,0c1.745,-0.495 3.497,-0.966 5.255,-1.414c31.551,-8.03 67.111,-8.03 98.662,0c1.758,0.448 3.51,0.919 5.255,1.414Z" style="fill-rule:nonzero;"/><path id="circle_of_latitude5" d="M318.384,38.801c-29.195,-21.441 -72.636,-33.869 -118.384,-33.869c-45.748,-0 -89.189,12.428 -118.384,33.869c0.772,-0.567 1.549,-1.129 2.329,-1.685c28.985,-20.652 71.435,-32.562 116.055,-32.562c44.62,-0 87.07,11.91 116.055,32.562c0.78,0.556 1.557,1.118 2.329,1.685Z" style="fill-rule:nonzero;"/><path id="circle_of_latitude6" d="M356.05,74.907c-29.062,-36.254 -89.784,-59.347 -156.05,-59.347c-66.266,-0 -126.988,23.093 -156.05,59.347c0.512,-0.639 1.027,-1.274 1.546,-1.906c29.23,-35.559 89.186,-58.109 154.504,-58.109c65.318,-0 125.274,22.55 154.504,58.109c0.519,0.632 1.034,1.267 1.546,1.906Z" style="fill-rule:nonzero;"/><path id="circle_of_latitude7" d="M380.951,114.813c-23.07,-49.004 -97.212,-83.021 -180.951,-83.021c-83.739,0 -157.881,34.017 -180.951,83.021c0.326,-0.691 0.655,-1.38 0.988,-2.067c23.477,-48.421 97.031,-81.892 179.963,-81.892c82.932,0 156.486,33.471 179.963,81.892c0.333,0.687 0.662,1.376 0.988,2.067Z" style="fill-rule:nonzero;"/><path id="circle_of_latitude8" d="M395.39,157.308c-12.968,-59.354 -97.031,-104.173 -195.39,-104.173c-98.359,0 -182.422,44.819 -195.39,104.173c0.158,-0.723 0.32,-1.445 0.486,-2.167c13.556,-58.899 97.206,-103.185 194.904,-103.185c97.698,0 181.348,44.286 194.904,103.185c0.166,0.722 0.328,1.444 0.486,2.167Z" style="fill-rule:nonzero;"/><path id="circle_of_latitude9" d="M399.997,201.1c0.001,-0.128 0.001,-0.257 0.001,-0.385c-0,-66.791 -90.282,-121.751 -199.998,-121.751c-109.716,-0 -199.998,54.96 -199.998,121.751c-0,0.128 0,0.257 0.001,0.385c-0.004,-0.733 -0.004,-1.467 -0,-2.2c0.346,-66.645 90.52,-121.366 199.997,-121.366c109.477,-0 199.651,54.721 199.997,121.366c0.004,0.733 0.004,1.467 -0,2.2Z" style="fill-rule:nonzero;"/><path id="circle_of_latitude10" d="M394.904,244.859c1.268,-5.508 1.904,-11.063 1.904,-16.625c0,-65.725 -88.842,-119.809 -196.808,-119.809c-107.966,0 -196.808,54.084 -196.808,119.809c-0,5.562 0.636,11.117 1.904,16.625c-0.166,-0.722 -0.328,-1.444 -0.486,-2.167c-1.146,-5.245 -1.721,-10.53 -1.721,-15.821c-0,-65.827 88.979,-119.994 197.111,-119.994c108.132,0 197.111,54.167 197.111,119.994c0,5.291 -0.575,10.576 -1.721,15.821c-0.158,0.723 -0.32,1.445 -0.486,2.167Z" style="fill-rule:nonzero;"/><path id="circle_of_latitude11" d="M379.963,287.254c5.09,-10.499 7.675,-21.389 7.675,-32.335c0,-62.663 -84.703,-114.227 -187.638,-114.227c-102.935,-0 -187.638,51.564 -187.638,114.227c-0,10.946 2.585,21.836 7.675,32.335c-0.333,-0.687 -0.662,-1.376 -0.988,-2.067c-4.832,-10.265 -7.284,-20.891 -7.284,-31.569c-0,-62.863 84.972,-114.591 188.235,-114.591c103.263,0 188.235,51.728 188.235,114.591c0,10.678 -2.452,21.304 -7.284,31.569c-0.326,0.691 -0.655,1.38 -0.988,2.067Z" style="fill-rule:nonzero;"/><path id="circle_of_latitude12" d="M354.504,326.999c12.009,-14.611 18.263,-30.727 18.263,-47.065c0,-57.697 -77.99,-105.174 -172.767,-105.174c-94.777,0 -172.767,47.477 -172.767,105.174c-0,16.338 6.254,32.454 18.263,47.065c-0.519,-0.632 -1.034,-1.267 -1.546,-1.906c-11.574,-14.437 -17.59,-30.293 -17.59,-46.358c0,-57.988 78.384,-105.705 173.64,-105.705c95.256,-0 173.64,47.717 173.64,105.705c-0,16.065 -6.016,31.921 -17.59,46.358c-0.512,0.639 -1.027,1.274 -1.546,1.906Z" style="fill-rule:nonzero;"/><path id="circle_of_latitude13" d="M316.055,362.884c23.61,-16.822 36.591,-38.237 36.591,-60.363c0,-50.977 -68.907,-92.925 -152.646,-92.925c-83.739,-0 -152.646,41.948 -152.646,92.925c-0,22.126 12.981,43.541 36.591,60.363c-0.78,-0.556 -1.557,-1.118 -2.329,-1.685c-22.864,-16.791 -35.384,-37.929 -35.384,-59.739c-0,-51.352 69.413,-93.608 153.768,-93.608c84.355,-0 153.768,42.256 153.768,93.608c0,21.81 -12.52,42.948 -35.384,59.739c-0.772,0.567 -1.549,1.129 -2.329,1.685Z" style="fill-rule:nonzero;"/><path id="circle_of_latitude14" d="M249.331,393.821c47.486,-12.086 78.557,-40.496 78.557,-71.828c-0,-42.709 -57.731,-77.854 -127.888,-77.854c-70.157,0 -127.888,35.145 -127.888,77.854c0,31.332 31.071,59.742 78.557,71.828c-1.758,-0.448 -3.51,-0.919 -5.255,-1.414c-45.451,-12.895 -74.639,-40.778 -74.639,-71.304c0,-43.156 58.334,-78.667 129.225,-78.667c70.891,-0 129.225,35.511 129.225,78.667c-0,30.526 -29.188,58.409 -74.639,71.304c-1.745,0.495 -3.497,0.966 -5.255,1.414Z" style="fill-rule:nonzero;"/><path id="circle_of_latitude15" d="M299.243,337.758c0,33.143 -44.8,60.415 -99.243,60.415c-54.443,0 -99.243,-27.272 -99.243,-60.415c-0,-33.143 44.8,-60.416 99.243,-60.416c54.443,0 99.243,27.273 99.243,60.416Zm1.512,-0.693c-0,-33.647 -45.483,-61.335 -100.755,-61.335c-55.272,-0 -100.755,27.688 -100.755,61.335c0,33.648 45.483,61.336 100.755,61.336c55.272,-0 100.755,-27.688 100.755,-61.336Z" style="fill-rule:nonzero;"/><path id="circle_of_latitude16" d="M267.583,349.337c0,22.57 -30.508,41.142 -67.583,41.142c-37.075,0 -67.583,-18.572 -67.583,-41.142c-0,-22.57 30.508,-41.142 67.583,-41.142c37.075,-0 67.583,18.572 67.583,41.142Zm1.64,-0.474c0,-23.117 -31.248,-42.14 -69.223,-42.14c-37.975,-0 -69.223,19.023 -69.223,42.14c-0,23.118 31.248,42.141 69.223,42.141c37.975,-0 69.223,-19.023 69.223,-42.141Z" style="fill-rule:nonzero;"/><path id="circle_of_latitude17" d="M233.87,356.379c0,11.311 -15.289,20.618 -33.87,20.618c-18.581,0 -33.87,-9.307 -33.87,-20.618c0,-11.311 15.289,-20.619 33.87,-20.619c18.581,0 33.87,9.308 33.87,20.619Zm1.719,-0.241c-0,-11.885 -16.066,-21.665 -35.589,-21.665c-19.523,0 -35.589,9.78 -35.589,21.665c0,11.885 16.066,21.665 35.589,21.665c19.523,0 35.589,-9.78 35.589,-21.665Z" style="fill-rule:nonzero;"/></g></g></g><g id="sphere_front"><g id="meridians1" serif:id="meridians"><path id="meridian01" serif:id="meridian0" d="M193.813,0.096c3.796,-0.101 9.318,90.066 12.233,199.743c2.915,109.677 2.19,200.01 -1.605,200.112c0.582,-0.013 1.164,-0.029 1.746,-0.047c3.795,-0.101 4.52,-90.435 1.604,-200.111c-2.915,-109.677 -8.437,-199.844 -12.232,-199.744c-0.582,0.013 -1.164,0.029 -1.746,0.047Z" style="fill-rule:nonzero;"/><path id="meridian18" serif:id="meridian1" d="M172.373,1.917c0.006,-0 0.011,-0.001 0.017,-0.002c18.67,-2.52 46.108,84.878 60.782,193.608c14.674,108.73 11.386,200.275 -7.284,202.794c-0.006,0.001 -0.011,0.002 -0.017,0.003c0.586,-0.077 1.171,-0.156 1.756,-0.237c18.657,-2.573 21.937,-94.1 7.268,-202.792c-14.669,-108.694 -42.095,-196.077 -60.766,-193.611c-0.586,0.077 -1.171,0.156 -1.756,0.237Z" style="fill-rule:nonzero;"/><path id="meridian21" serif:id="meridian2" d="M150.212,6.296c0.021,-0.005 0.042,-0.01 0.063,-0.016c32.299,-8.144 80.952,72.696 107.778,179.082c26.825,106.385 22.322,200.629 -9.977,208.774c-0.021,0.005 -0.043,0.01 -0.064,0.016c0.593,-0.147 1.185,-0.296 1.776,-0.448c32.246,-8.254 36.719,-102.452 9.914,-208.758c-26.806,-106.307 -75.41,-187.121 -107.714,-179.098c-0.593,0.147 -1.185,0.296 -1.776,0.448Z" style="fill-rule:nonzero;"/><path id="meridian31" serif:id="meridian3" d="M126.785,13.883c0.048,-0.019 0.095,-0.037 0.143,-0.056c43.604,-16.911 112.129,53.348 151.801,155.64c39.671,102.292 36.435,200.382 -7.169,217.292c-0.048,0.019 -0.096,0.037 -0.144,0.056c0.601,-0.23 1.201,-0.463 1.799,-0.698c43.478,-17.074 46.647,-115.071 7.025,-217.236c-39.622,-102.165 -108.035,-172.4 -151.656,-155.696c-0.601,0.23 -1.201,0.463 -1.799,0.698Z" style="fill-rule:nonzero;"/><path id="meridian41" serif:id="meridian4" d="M101.667,25.843c0.082,-0.046 0.165,-0.093 0.248,-0.139c51.356,-28.648 137.597,26.624 191.046,122.44c53.449,95.816 55.171,198.234 3.815,226.882c-0.082,0.046 -0.165,0.092 -0.248,0.138c0.603,-0.333 1.205,-0.668 1.805,-1.007c51.12,-28.849 49.288,-131.102 -4.063,-226.743c-53.352,-95.641 -139.394,-150.919 -190.798,-122.578c-0.603,0.333 -1.205,0.668 -1.805,1.007Z" style="fill-rule:nonzero;"/><path id="meridian51" serif:id="meridian5" d="M74.819,44.02c0.112,-0.09 0.224,-0.179 0.336,-0.268c54.099,-42.919 154.727,-7.509 222.917,78.442c68.19,85.952 79.785,191.997 25.686,234.916c-0.112,0.089 -0.224,0.178 -0.337,0.266c0.589,-0.462 1.176,-0.927 1.76,-1.396c53.739,-43.111 42.007,-148.898 -26.022,-234.648c-68.03,-85.749 -168.377,-121.234 -222.58,-78.708c-0.589,0.462 -1.176,0.927 -1.76,1.396Z" style="fill-rule:nonzero;"/><path id="meridian61" serif:id="meridian6" d="M47.202,70.955c0.128,-0.152 0.256,-0.303 0.385,-0.454c50.179,-58.68 160.085,-48.29 243.47,23.015c83.386,71.305 110.711,178.266 60.533,236.945c-0.129,0.151 -0.259,0.301 -0.388,0.451c0.536,-0.619 1.068,-1.241 1.596,-1.867c49.68,-58.808 22.224,-165.394 -60.918,-236.491c-83.142,-71.097 -192.698,-81.674 -243.082,-23.466c-0.536,0.619 -1.068,1.241 -1.596,1.867Z" style="fill-rule:nonzero;"/><path id="meridian71" serif:id="meridian7" d="M21.797,109.205c0.113,-0.222 0.227,-0.443 0.341,-0.664c38.179,-73.714 149.764,-92.85 247.188,-42.391c97.423,50.459 146.174,152.638 107.995,226.352c-0.114,0.222 -0.23,0.442 -0.346,0.663c0.415,-0.788 0.824,-1.578 1.228,-2.37c37.57,-73.711 -11.244,-175.401 -108.337,-225.688c-97.092,-50.288 -208.313,-31.486 -246.841,41.728c-0.415,0.788 -0.824,1.578 -1.228,2.37Z" style="fill-rule:nonzero;"/><path id="meridian81" serif:id="meridian8" d="M4.225,159.107c0.059,-0.28 0.118,-0.559 0.178,-0.838c18.242,-84.349 121.495,-134.674 228.731,-111.482c107.237,23.191 180.469,111.683 162.227,196.032c-0.06,0.279 -0.121,0.558 -0.184,0.836c0.206,-0.919 0.405,-1.84 0.598,-2.762c17.591,-84.157 -55.571,-172.09 -162.405,-195.194c-106.835,-23.104 -209.793,26.74 -228.547,110.646c-0.206,0.919 -0.405,1.84 -0.598,2.762Z" style="fill-rule:nonzero;"/><path id="meridian91" serif:id="meridian9" d="M0.62,215.735c-0.024,-0.298 -0.046,-0.596 -0.067,-0.895c-6.221,-86.737 78.711,-164.57 188.145,-172.419c109.435,-7.849 204.605,57.067 210.826,143.805c0.021,0.298 0.042,0.596 0.061,0.894c-0.062,-0.952 -0.13,-1.903 -0.205,-2.855c-6.813,-86.354 -101.75,-150.728 -210.758,-142.91c-109.008,7.818 -193.787,85.082 -188.207,171.525c0.062,0.952 0.13,1.903 0.205,2.855Z" style="fill-rule:nonzero;"/><path id="meridian101" serif:id="meridian10" d="M12.55,269.732c-0.095,-0.257 -0.19,-0.515 -0.285,-0.774c-29.079,-79.85 31.825,-176.45 134.917,-213.993c103.092,-37.544 211.853,-2.731 240.932,77.119c0.094,0.258 0.187,0.517 0.28,0.776c-0.309,-0.866 -0.624,-1.73 -0.944,-2.592c-29.52,-79.357 -137.934,-113.751 -240.648,-76.345c-102.714,37.405 -163.621,133.462 -135.196,213.217c0.309,0.866 0.624,1.73 0.944,2.592Z" style="fill-rule:nonzero;"/><path id="meridian111" serif:id="meridian11" d="M35.372,313.568c-0.127,-0.184 -0.254,-0.369 -0.38,-0.554c-45.238,-66.487 -7.822,-171.985 82.887,-233.705c90.709,-61.72 202.577,-57.799 247.816,8.688c0.126,0.185 0.251,0.37 0.376,0.556c-0.476,-0.71 -0.957,-1.417 -1.443,-2.121c-45.51,-65.994 -157.014,-69.659 -247.436,-8.134c-90.423,61.526 -127.944,166.591 -83.263,233.149c0.476,0.71 0.957,1.417 1.443,2.121Z" style="fill-rule:nonzero;"/><path id="meridian121" serif:id="meridian12" d="M62.679,345.406c-0.125,-0.118 -0.249,-0.236 -0.373,-0.354c-53.076,-50.718 -34.378,-157.725 41.42,-237.048c75.799,-79.323 181.846,-102.862 234.921,-52.145c0.125,0.119 0.248,0.238 0.372,0.357c-0.563,-0.544 -1.129,-1.085 -1.698,-1.622c-53.226,-50.278 -158.951,-26.613 -234.548,52.499c-75.597,79.113 -94.435,185.804 -41.792,236.691c0.563,0.544 1.129,1.085 1.698,1.622Z" style="fill-rule:nonzero;"/><path id="meridian131" serif:id="meridian13" d="M90.225,367.181c-0.098,-0.065 -0.197,-0.13 -0.295,-0.195c-53.454,-35.512 -47.482,-139.934 13.231,-231.321c60.712,-91.386 154.657,-137.364 208.111,-101.852c0.098,0.065 0.197,0.131 0.295,0.197c-0.595,-0.401 -1.193,-0.797 -1.792,-1.191c-53.526,-35.162 -147.23,10.852 -207.816,102.048c-60.586,91.196 -66.684,195.409 -13.526,231.123c0.595,0.401 1.193,0.797 1.792,1.191Z" style="fill-rule:nonzero;"/><path id="meridian141" serif:id="meridian14" d="M116.26,381.625c-0.063,-0.029 -0.126,-0.058 -0.189,-0.088c-48.009,-22.426 -49.305,-122.678 -2.871,-222.083c46.435,-99.405 124.15,-162.749 172.159,-140.323c0.062,0.029 0.125,0.058 0.187,0.088c-0.6,-0.284 -1.202,-0.566 -1.806,-0.844c-48.037,-22.179 -125.604,41.153 -171.969,140.411c-46.366,99.259 -45.156,199.389 2.683,221.995c0.6,0.284 1.202,0.566 1.806,0.844Z" style="fill-rule:nonzero;"/><path id="meridian151" serif:id="meridian15" d="M140.476,390.937c-0.032,-0.01 -0.063,-0.02 -0.094,-0.03c-38.314,-12.142 -42.568,-108.197 -9.424,-212.786c33.145,-104.59 91.947,-180.663 130.261,-168.521c0.031,0.01 0.062,0.02 0.093,0.03c-0.595,-0.192 -1.191,-0.381 -1.788,-0.567c-38.323,-11.99 -97.053,64.058 -130.166,168.55c-33.115,104.493 -28.905,200.487 9.33,212.757c0.595,0.192 1.191,0.381 1.788,0.567Z" style="fill-rule:nonzero;"/><path id="meridian161" serif:id="meridian16" d="M163.183,396.582c-0.012,-0.002 -0.024,-0.005 -0.036,-0.007c-25.705,-4.934 -29.839,-97.658 -9.158,-205.406c20.682,-107.749 58.852,-192.353 84.558,-187.419c0.011,0.002 0.023,0.004 0.035,0.007c-0.588,-0.116 -1.176,-0.229 -1.765,-0.339c-25.707,-4.849 -63.851,79.733 -84.521,187.426c-20.671,107.692 -16.554,200.386 9.122,205.399c0.588,0.116 1.176,0.229 1.765,0.339Z" style="fill-rule:nonzero;"/><path id="meridian171" serif:id="meridian17" d="M184.897,399.429c-11.325,-0.908 -13.432,-91.648 -4.667,-201.013c8.765,-109.365 25.297,-198.612 36.622,-197.705c-0.583,-0.049 -1.166,-0.096 -1.749,-0.14c-11.325,-0.907 -27.857,88.34 -36.622,197.704c-8.765,109.365 -6.658,200.106 4.667,201.014c0.583,0.049 1.166,0.096 1.749,0.14Z" style="fill-rule:nonzero;"/></g><g id="circles_of_latitude1" serif:id="circles_of_latitude"><path id="circle_of_latitude41" serif:id="circle_of_latitude4" d="M145.414,392.407c34.584,9.811 74.588,9.811 109.172,-0c-1.745,0.495 -3.497,0.966 -5.255,1.414c-31.551,8.03 -67.111,8.03 -98.662,-0c-1.758,-0.448 -3.51,-0.919 -5.255,-1.414Z" style="fill-rule:nonzero;"/><path id="circle_of_latitude51" serif:id="circle_of_latitude5" d="M81.616,361.199c29.195,21.441 72.636,33.869 118.384,33.869c45.748,0 89.189,-12.428 118.384,-33.869c-0.772,0.567 -1.549,1.129 -2.329,1.685c-28.985,20.652 -71.435,32.562 -116.055,32.562c-44.62,0 -87.07,-11.91 -116.055,-32.562c-0.78,-0.556 -1.557,-1.118 -2.329,-1.685Z" style="fill-rule:nonzero;"/><path id="circle_of_latitude61" serif:id="circle_of_latitude6" d="M43.95,325.093c29.062,36.254 89.784,59.347 156.05,59.347c66.266,0 126.988,-23.093 156.05,-59.347c-0.512,0.639 -1.027,1.274 -1.546,1.906c-29.23,35.559 -89.186,58.109 -154.504,58.109c-65.318,0 -125.274,-22.55 -154.504,-58.109c-0.519,-0.632 -1.034,-1.267 -1.546,-1.906Z" style="fill-rule:nonzero;"/><path id="circle_of_latitude71" serif:id="circle_of_latitude7" d="M19.049,285.187c23.07,49.004 97.212,83.021 180.951,83.021c83.739,-0 157.881,-34.017 180.951,-83.021c-0.326,0.691 -0.655,1.38 -0.988,2.067c-23.477,48.421 -97.031,81.892 -179.963,81.892c-82.932,-0 -156.486,-33.471 -179.963,-81.892c-0.333,-0.687 -0.662,-1.376 -0.988,-2.067Z" style="fill-rule:nonzero;"/><path id="circle_of_latitude81" serif:id="circle_of_latitude8" d="M4.61,242.692c12.968,59.354 97.031,104.173 195.39,104.173c98.359,-0 182.422,-44.819 195.39,-104.173c-0.158,0.723 -0.32,1.445 -0.486,2.167c-13.556,58.899 -97.206,103.185 -194.904,103.185c-97.698,-0 -181.348,-44.286 -194.904,-103.185c-0.166,-0.722 -0.328,-1.444 -0.486,-2.167Z" style="fill-rule:nonzero;"/><path id="circle_of_latitude91" serif:id="circle_of_latitude9" d="M0.003,198.9c-0.001,0.128 -0.001,0.257 -0.001,0.385c-0,66.791 90.282,121.751 199.998,121.751c109.716,0 199.998,-54.96 199.998,-121.751c0,-0.128 -0,-0.257 -0.001,-0.385c0.004,0.733 0.004,1.467 0,2.2c-0.346,66.645 -90.52,121.366 -199.997,121.366c-109.477,0 -199.651,-54.721 -199.997,-121.366c-0.004,-0.733 -0.004,-1.467 0,-2.2Z" style="fill-rule:nonzero;"/><path id="circle_of_latitude101" serif:id="circle_of_latitude10" d="M5.096,155.141c-1.268,5.508 -1.904,11.063 -1.904,16.625c-0,65.725 88.842,119.809 196.808,119.809c107.966,-0 196.808,-54.084 196.808,-119.809c0,-5.562 -0.636,-11.117 -1.904,-16.625c0.166,0.722 0.328,1.444 0.486,2.167c1.146,5.245 1.721,10.53 1.721,15.821c0,65.827 -88.979,119.994 -197.111,119.994c-108.132,-0 -197.111,-54.167 -197.111,-119.994c-0,-5.291 0.575,-10.576 1.721,-15.821c0.158,-0.723 0.32,-1.445 0.486,-2.167Z" style="fill-rule:nonzero;"/><path id="circle_of_latitude111" serif:id="circle_of_latitude11" d="M20.037,112.746c-5.09,10.499 -7.675,21.389 -7.675,32.335c-0,62.663 84.703,114.227 187.638,114.227c102.935,0 187.638,-51.564 187.638,-114.227c0,-10.946 -2.585,-21.836 -7.675,-32.335c0.333,0.687 0.662,1.376 0.988,2.067c4.832,10.265 7.284,20.891 7.284,31.569c0,62.863 -84.972,114.591 -188.235,114.591c-103.263,-0 -188.235,-51.728 -188.235,-114.591c-0,-10.678 2.452,-21.304 7.284,-31.569c0.326,-0.691 0.655,-1.38 0.988,-2.067Z" style="fill-rule:nonzero;"/><path id="circle_of_latitude121" serif:id="circle_of_latitude12" d="M45.496,73.001c-12.009,14.611 -18.263,30.727 -18.263,47.065c-0,57.697 77.99,105.174 172.767,105.174c94.777,-0 172.767,-47.477 172.767,-105.174c0,-16.338 -6.254,-32.454 -18.263,-47.065c0.519,0.632 1.034,1.267 1.546,1.906c11.574,14.437 17.59,30.293 17.59,46.358c-0,57.988 -78.384,105.705 -173.64,105.705c-95.256,0 -173.64,-47.717 -173.64,-105.705c0,-16.065 6.016,-31.921 17.59,-46.358c0.512,-0.639 1.027,-1.274 1.546,-1.906Z" style="fill-rule:nonzero;"/><path id="circle_of_latitude131" serif:id="circle_of_latitude13" d="M83.945,37.116c-23.61,16.822 -36.591,38.237 -36.591,60.363c-0,50.977 68.907,92.925 152.646,92.925c83.739,0 152.646,-41.948 152.646,-92.925c0,-22.126 -12.981,-43.541 -36.591,-60.363c0.78,0.556 1.557,1.118 2.329,1.685c22.864,16.791 35.384,37.929 35.384,59.739c0,51.352 -69.413,93.608 -153.768,93.608c-84.355,0 -153.768,-42.256 -153.768,-93.608c-0,-21.81 12.52,-42.948 35.384,-59.739c0.772,-0.567 1.549,-1.129 2.329,-1.685Z" style="fill-rule:nonzero;"/><path id="circle_of_latitude141" serif:id="circle_of_latitude14" d="M150.669,6.179c-47.486,12.086 -78.557,40.496 -78.557,71.828c0,42.709 57.731,77.854 127.888,77.854c70.157,-0 127.888,-35.145 127.888,-77.854c-0,-31.332 -31.071,-59.742 -78.557,-71.828c1.758,0.448 3.51,0.919 5.255,1.414c45.451,12.895 74.639,40.778 74.639,71.304c-0,43.156 -58.334,78.667 -129.225,78.667c-70.891,0 -129.225,-35.511 -129.225,-78.667c0,-30.526 29.188,-58.409 74.639,-71.304c1.745,-0.495 3.497,-0.966 5.255,-1.414Z" style="fill-rule:nonzero;"/><path id="circle_of_latitude151" serif:id="circle_of_latitude15" d="M100.757,62.242c-0,-33.143 44.8,-60.415 99.243,-60.415c54.443,0 99.243,27.272 99.243,60.415c0,33.143 -44.8,60.416 -99.243,60.416c-54.443,-0 -99.243,-27.273 -99.243,-60.416Zm-1.512,0.693c0,33.647 45.483,61.335 100.755,61.335c55.272,0 100.755,-27.688 100.755,-61.335c-0,-33.648 -45.483,-61.336 -100.755,-61.336c-55.272,-0 -100.755,27.688 -100.755,61.336Z" style="fill-rule:nonzero;"/><path id="circle_of_latitude161" serif:id="circle_of_latitude16" d="M132.417,50.663c-0,-22.57 30.508,-41.142 67.583,-41.142c37.075,-0 67.583,18.572 67.583,41.142c0,22.57 -30.508,41.142 -67.583,41.142c-37.075,0 -67.583,-18.572 -67.583,-41.142Zm-1.64,0.474c-0,23.117 31.248,42.14 69.223,42.14c37.975,0 69.223,-19.023 69.223,-42.14c0,-23.118 -31.248,-42.141 -69.223,-42.141c-37.975,0 -69.223,19.023 -69.223,42.141Z" style="fill-rule:nonzero;"/><path id="circle_of_latitude171" serif:id="circle_of_latitude17" d="M166.13,43.621c0,-11.311 15.289,-20.618 33.87,-20.618c18.581,-0 33.87,9.307 33.87,20.618c0,11.311 -15.289,20.619 -33.87,20.619c-18.581,-0 -33.87,-9.308 -33.87,-20.619Zm-1.719,0.241c0,11.885 16.066,21.665 35.589,21.665c19.523,-0 35.589,-9.78 35.589,-21.665c-0,-11.885 -16.066,-21.665 -35.589,-21.665c-19.523,-0 -35.589,9.78 -35.589,21.665Z" style="fill-rule:nonzero;"/></g></g></g></svg>