<?xml version="1.0" encoding="UTF-8" standalone="no"?><!DOCTYPE svg PUBLIC "-//W3C//DTD SVG 1.1//EN" "http://www.w3.org/Graphics/SVG/1.1/DTD/svg11.dtd"><svg width="100%" height="100%" viewBox="0 0 10667 10667" version="1.1" xmlns="http://www.w3.org/2000/svg" xmlns:xlink="http://www.w3.org/1999/xlink" xml:space="preserve" xmlns:serif="http://www.serif.com/" style="fill-rule:evenodd;clip-rule:evenodd;stroke-linejoin:round;stroke-miterlimit:2;"><g><path d="M4701.81,6503.83l-427.403,-464.085c-1139.53,-1237.33 -1138.06,-1238.14 -1694.35,-1852.41c-26.675,-54.984 -115.772,-73.283 -125.874,-21.546c-34.346,175.893 -38.114,1509.63 -38.485,1640.94c-2.382,842.927 53.53,1109.4 73.344,1203.83c6.187,29.49 52.607,250.724 157.009,342.356c86.327,75.768 276.413,173.207 475.893,224.603c294.108,67.359 169.418,263.054 145.71,267.403c-53.26,9.771 -524.556,16.79 -570.187,17.469c-165.536,2.465 -801.515,-1.531 -1021.22,-0.539c-0,-0 -118.904,-0 -118.904,-0c-76.132,-0 -298.091,-119.878 7.633,-284.333c341.957,-137.905 375.087,-536.297 381.61,-637.133c40.38,-384.953 143.694,-3290.88 111.787,-3513.67c-8.137,-56.82 -28.347,-227.928 -92.214,-285.807c-90.323,-81.854 -490.398,-219.304 -518.263,-267.807c-81.035,-141.047 5.349,-207.435 104.187,-208.992c138.841,-2.187 1226.52,7.854 1412.51,0.883c78.02,-2.924 67.345,32.884 962.549,1042.53l404.507,456.219c51.485,58.066 1478.09,1693.33 1606.58,1840.61c7.405,10.176 71.978,98.91 127.004,92.826c40.904,-4.522 40.904,-99.277 40.904,-108.557c0,-0 0,-1270.33 0,-1270.33c0,-97.868 0,-857.377 -22.897,-1223.14c-9.495,-283.81 -186.423,-339.831 -191.698,-342.559c-83.264,-43.065 -330.216,-122.019 -373.74,-146.908c-62.369,-35.664 -221.565,-231.965 -13.833,-322.133c91.276,-39.619 97.288,9.102 1243.76,-9.699c379.612,-6.226 380.893,-12.841 411.705,0.443c57.022,24.585 114.014,120.9 114.378,132.899c556.255,-244.114 1218.12,-141.916 1457.66,4.543c50.937,31.144 369.069,225.655 467.855,581.438c90.587,326.25 122.486,758.59 94.165,772.145c-102.57,49.094 -293.199,-14.629 -315.621,-93.106c-316.799,-1227.6 -1400.56,-1037.94 -1593.17,-754.78c-226.93,333.622 -109.079,668.963 15.818,797.906c18.459,19.058 145.156,149.859 245.992,222.431c235.275,169.33 593.396,387.697 646.019,419.784c143.46,84.097 1147.88,606.176 1152.57,1624.5c5.726,1244.8 -1565.06,2476.59 -3243.49,1570.3c-312.795,-168.898 -452.08,-310.079 -485.51,-343.965c-107.208,-108.667 -388.357,-416.367 -421.754,-452.917c-198.033,-216.735 -393.647,-435.679 -592.532,-651.632Zm1825.5,-1258.54c-5.891,119.111 -55.321,1118.61 -31.807,1490.36c482.413,938.536 1307.31,1006.17 1616.87,694.992c173.147,-174.052 334.403,-564.862 139.56,-896.612c-236.999,-403.528 -780.602,-640.872 -792.711,-647.229c-672.573,-368.314 -869.597,-575.871 -931.909,-641.515Z" style="fill:#fff;"/></g></svg>