<?xml version="1.0" encoding="UTF-8" standalone="no"?><!DOCTYPE svg PUBLIC "-//W3C//DTD SVG 1.1//EN" "http://www.w3.org/Graphics/SVG/1.1/DTD/svg11.dtd"><svg width="100%" height="100%" viewBox="0 0 8000 8000" version="1.1" xmlns="http://www.w3.org/2000/svg" xmlns:xlink="http://www.w3.org/1999/xlink" xml:space="preserve" xmlns:serif="http://www.serif.com/" style="fill-rule:evenodd;clip-rule:evenodd;stroke-linejoin:round;stroke-miterlimit:2;"><g><path d="M3526.36,4877.87l-320.552,-348.063c-854.648,-927.998 -853.548,-928.606 -1270.76,-1389.31c-20.007,-41.238 -86.829,-54.963 -94.406,-16.16c-25.76,131.92 -28.586,1132.22 -28.864,1230.7c-1.786,632.195 40.148,832.051 55.008,902.873c4.641,22.117 39.455,188.043 117.757,256.767c64.745,56.826 207.31,129.905 356.919,168.452c220.582,50.519 127.064,197.29 109.283,200.552c-39.945,7.329 -393.417,12.592 -427.64,13.102c-124.152,1.849 -601.136,-1.148 -765.917,-0.405c0,0 -89.177,0 -89.177,0c-57.1,0 -223.569,-89.908 5.724,-213.249c256.468,-103.429 281.316,-402.223 286.208,-477.85c30.285,-288.715 107.77,-2468.16 83.84,-2635.25c-6.103,-42.615 -21.26,-170.946 -69.161,-214.355c-67.742,-61.39 -367.798,-164.478 -388.697,-200.855c-60.776,-105.785 4.012,-155.576 78.141,-156.744c104.13,-1.64 919.886,5.891 1059.38,0.662c58.515,-2.193 50.509,24.663 721.912,781.898l303.38,342.165c38.614,43.55 1108.57,1269.99 1204.93,1380.45c5.554,7.632 53.984,74.182 95.254,69.62c30.678,-3.392 30.678,-74.458 30.678,-81.418l-0,-952.751c-0,-73.401 -0,-643.033 -17.173,-917.354c-7.122,-212.857 -139.818,-254.873 -143.773,-256.919c-62.449,-32.299 -247.662,-91.515 -280.306,-110.181c-46.776,-26.748 -166.173,-173.974 -10.374,-241.6c68.457,-29.715 72.965,6.827 932.818,-7.274c284.709,-4.669 285.67,-9.631 308.779,0.332c42.767,18.439 85.51,90.675 85.783,99.674c417.192,-183.086 913.591,-106.437 1093.25,3.408c38.203,23.357 276.802,169.241 350.892,436.078c67.939,244.687 91.864,568.942 70.623,579.109c-76.927,36.82 -219.899,-10.972 -236.715,-69.83c-237.6,-920.697 -1050.42,-778.457 -1194.88,-566.085c-170.198,250.217 -81.81,501.723 11.863,598.43c13.845,14.293 108.868,112.394 184.494,166.823c176.457,126.998 445.048,290.772 484.515,314.838c107.595,63.073 860.911,454.632 864.424,1218.38c4.295,933.602 -1173.8,1857.44 -2432.62,1177.72c-234.596,-126.673 -339.06,-232.559 -364.133,-257.974c-80.405,-81.5 -291.267,-312.275 -316.315,-339.688c-148.524,-162.551 -295.235,-326.759 -444.399,-488.724Zm1369.12,-943.906c-4.418,89.333 -41.491,838.956 -23.855,1117.77c361.809,703.902 980.479,754.627 1212.65,521.244c129.861,-130.539 250.803,-423.647 104.671,-672.459c-177.749,-302.646 -585.452,-480.654 -594.533,-485.422c-504.43,-276.235 -652.198,-431.903 -698.932,-481.136Z"/></g></svg>